# xmcd
#
# Track frame offsets: 
#        150
#        9054
#        30605
#        40175
#        51426
#        64392
#        79007
#        90364
#        101952
#        113374
#        128871
#        147038
#        159945
#        171117
#        182978
#        195649
#        206803
#        221472
#        234507
#        249423
#
# Disc length: 3542 seconds
#
# Revision: 0
# Processed by: cddbd v1.5.2PL0 Copyright (c) Steve Scherf et al.
# Submitted via: ExactAudioCopy v1.0b1
#
DISCID=090dd414
DTITLE=Chris LeDoux - 20 Originals, The Early Years
DYEAR=2004
DGENRE=Country
TTITLE0=Copenhagen
TTITLE1=Photo Finish
TTITLE2=Mighty Lucky Man
TTITLE3=Fourth Of July Rodeos
TTITLE4=Fine As Wine
TTITLE5=Caballo Diablo
TTITLE6=I've Got To Be A Rodeo Man
TTITLE7=Littlest Cowboy Rides Again
TTITLE8=All Around Cowboy
TTITLE9=Bad Brahma Bull
TTITLE10=Paint Me Back Home In Wyoming
TTITLE11=Lean, Mean And Hungry
TTITLE12=Ten Seconds In The Saddle
TTITLE13=Freedom Ain't Free
TTITLE14=He Rides The Wild Horses
TTITLE15=So You Want To Be A Cowboy
TTITLE16=I Used To Want To Be A Cowboy
TTITLE17=Tennessee Stud
TTITLE18=It Ain't The Years, It's The Miles
TTITLE19=Running Through The Rain
EXTD=
EXTT0=
EXTT1=
EXTT2=
EXTT3=
EXTT4=
EXTT5=
EXTT6=
EXTT7=
EXTT8=
EXTT9=
EXTT10=
EXTT11=
EXTT12=
EXTT13=
EXTT14=
EXTT15=
EXTT16=
EXTT17=
EXTT18=
EXTT19=
PLAYORDER=
